<?xml version="1.0" standalone="no"?>
<!DOCTYPE svg PUBLIC "-//W3C//DTD SVG 20010904//EN"
 "http://www.w3.org/TR/2001/REC-SVG-20010904/DTD/svg10.dtd">
<svg version="1.0" xmlns="http://www.w3.org/2000/svg"
 width="300.000000pt" height="400.000000pt" viewBox="0 0 300.000000 400.000000"
 preserveAspectRatio="xMidYMid meet">

<g transform="translate(0.000000,400.000000) scale(0.100000,-0.100000)"
fill="#000000" stroke="none">
<path d="M2394 3799 c-3 -5 8 -28 24 -51 42 -61 55 -111 49 -177 -12 -119 -60
-216 -110 -223 -13 -2 -83 28 -167 71 -207 106 -333 146 -555 177 -190 26
-478 8 -641 -41 -59 -17 -192 -88 -275 -147 l-57 -39 -38 19 c-38 19 -80 26
-138 23 -40 -2 -96 -60 -96 -99 0 -26 -5 -32 -37 -42 -145 -47 -237 -209 -268
-468 -13 -114 -13 -138 1 -227 33 -217 15 -394 -43 -416 -26 -10 -23 -29 5
-29 9 0 26 -7 36 -15 25 -19 103 -19 140 0 15 8 31 15 33 15 10 0 -8 -103 -23
-132 -8 -15 -23 -34 -34 -41 -11 -6 -20 -15 -20 -19 0 -12 121 0 168 16 41 15
42 15 42 -7 0 -37 -29 -157 -56 -241 -27 -79 -81 -156 -110 -156 -25 0 -15
-19 19 -36 18 -10 64 -19 107 -22 70 -4 99 2 174 33 17 8 19 5 12 -26 -3 -19
-15 -46 -26 -61 -19 -26 -20 -28 -2 -28 10 0 22 -4 28 -9 13 -13 123 6 161 29
27 16 33 16 43 5 7 -8 36 -26 65 -41 42 -20 65 -25 104 -22 57 4 74 15 48 29
-23 13 -22 52 4 75 22 20 23 19 53 -36 8 -14 26 -36 40 -49 21 -20 28 -22 41
-11 8 7 15 11 15 8 0 -2 -27 -84 -60 -183 -61 -182 -84 -261 -95 -325 -3 -19
-13 -57 -21 -83 -21 -64 -5 -136 38 -172 33 -28 70 -40 93 -31 18 6 20 -5 4
-21 -17 -17 -4 -30 56 -58 52 -25 53 -26 48 -63 -2 -20 -10 -111 -16 -202
l-12 -165 -50 -3 c-66 -3 -95 -10 -95 -22 0 -22 63 -32 260 -43 210 -12 737
-13 748 -3 3 4 -2 14 -11 23 -11 11 -40 18 -98 21 l-82 5 7 75 c3 41 6 131 6
199 l0 123 33 0 c18 0 41 6 50 13 16 11 16 16 2 62 -8 28 -15 51 -15 53 0 1
16 2 36 2 48 0 73 15 90 55 20 48 18 73 -10 131 -13 27 -38 112 -55 189 -18
77 -54 208 -80 290 -27 83 -47 152 -45 154 3 3 50 -49 66 -73 16 -25 137 73
189 153 l15 24 53 -49 c46 -43 54 -56 58 -97 5 -45 6 -46 37 -40 56 10 112 50
147 105 18 29 34 55 36 57 2 3 16 -7 31 -22 66 -63 250 -97 312 -57 13 8 10
15 -18 40 -42 40 -69 94 -92 186 l-19 75 23 73 c39 118 59 257 59 416 1 80 -3
167 -7 193 l-7 48 23 -15 c58 -37 175 -27 219 20 12 13 21 24 18 25 -33 6 -46
11 -75 31 -64 43 -115 125 -194 313 -67 160 -165 344 -191 360 -14 9 -11 25 6
25 26 0 98 40 133 73 80 77 82 251 4 370 -29 43 -145 137 -171 137 -9 1 -33 7
-54 14 -20 8 -40 10 -43 5z m262 -213 c29 -63 30 -114 4 -166 -22 -43 -36 -53
-24 -18 11 37 6 161 -9 206 -19 56 -1 42 29 -22z m-67 -124 c1 -53 -17 -114
-38 -126 -8 -5 -8 0 -1 20 6 14 13 67 17 118 7 96 20 89 22 -12z m-1492 -69
c-8 -10 -43 -38 -76 -63 -33 -25 -60 -47 -60 -50 -1 -5 271 -74 494 -125 l140
-33 12 22 c27 47 11 -11 -21 -78 -36 -74 -113 -174 -156 -203 -19 -12 -17 -8
9 20 32 33 33 37 15 44 -163 62 -159 59 -162 89 -4 50 -12 74 -23 74 -16 0
-132 -114 -180 -177 -23 -29 -44 -51 -47 -49 -5 6 60 93 108 144 l32 33 -65
29 c-79 36 -175 92 -204 119 l-22 21 -57 -68 c-32 -37 -79 -100 -106 -141 -26
-40 -48 -70 -48 -66 0 4 23 51 52 104 63 116 185 248 297 322 81 53 93 58 68
32z m-358 -33 c-23 -29 -35 -37 -41 -28 -5 9 3 22 25 40 46 39 53 34 16 -12z
m-162 15 c61 -18 132 -90 151 -153 16 -54 15 -62 -10 -89 -23 -24 -48 -31 -48
-12 0 22 -73 110 -115 139 -24 16 -64 35 -89 42 -25 7 -46 17 -46 23 0 16 41
52 65 58 34 8 40 7 92 -8z m-117 -79 c0 -2 -7 -6 -15 -10 -8 -3 -15 -1 -15 4
0 6 7 10 15 10 8 0 15 -2 15 -4z m71 -35 c44 -28 104 -93 128 -138 13 -26 43
-30 61 -8 26 31 20 6 -11 -46 -17 -30 -38 -67 -46 -84 -14 -29 -14 -29 -10 22
2 29 0 50 -5 47 -4 -3 -8 2 -8 11 0 33 -45 102 -105 162 -35 35 -60 63 -56 63
4 0 27 -13 52 -29z m1474 -61 c58 -154 84 -355 58 -443 -24 -84 -84 -187 -141
-246 -43 -44 -49 -48 -27 -18 36 51 80 150 99 224 24 90 24 90 -43 97 l-58 7
-12 77 c-7 42 -19 101 -26 130 l-13 53 89 -7 c51 -4 89 -3 89 2 0 10 -34 137
-46 169 -5 14 -4 17 4 10 6 -5 18 -30 27 -55z m-1697 -14 c-45 -48 -57 -71
-109 -212 -33 -87 -59 -163 -59 -170 0 -7 -5 -16 -11 -20 -8 -5 -10 10 -5 52
16 163 98 329 191 386 49 29 47 21 -7 -36z m2177 -33 c9 4 22 -5 34 -22 35
-49 117 -215 156 -317 47 -122 91 -212 118 -241 11 -13 16 -23 10 -23 -31 0
-141 157 -178 253 -15 39 -22 48 -38 43 -13 -3 -21 1 -24 15 -10 36 -74 163
-100 197 -24 32 -24 34 -7 47 18 13 18 15 -11 46 l-30 32 27 -18 c16 -9 34
-15 43 -12z m-2062 -29 c-42 -45 -129 -227 -151 -316 -10 -38 -20 -68 -23 -68
-3 0 0 46 8 102 16 123 52 207 117 273 57 56 102 65 49 9z m1951 10 c6 -10 23
-34 39 -52 32 -39 80 -132 114 -221 20 -54 23 -73 16 -125 l-7 -61 -7 68 c-4
38 -10 71 -12 74 -3 2 -21 0 -41 -5 l-36 -10 -53 81 c-30 45 -71 102 -91 127
-34 40 -36 45 -19 51 10 4 32 8 48 8 52 2 61 14 36 49 -11 17 -21 33 -21 37 0
13 24 -1 34 -21z m-149 -76 c28 -57 35 -84 34 -128 -1 -57 -18 -119 -33 -120
-4 -1 -30 50 -58 112 -27 62 -52 119 -55 126 -4 9 9 12 46 12 28 0 51 2 51 5
0 4 -7 19 -15 35 -9 17 -13 30 -10 30 3 0 21 -32 40 -72z m-458 36 c36 -4 54
-12 57 -23 12 -44 27 -123 35 -179 l8 -63 -51 7 c-88 12 -87 11 -113 120 -41
172 -39 158 -12 151 13 -3 48 -9 76 -13z m-551 -244 c-1 -87 -2 -90 -24 -90
-19 0 -21 4 -16 25 8 34 -2 32 -20 -4 -12 -21 -24 -30 -50 -33 l-34 -4 41 61
c33 48 98 134 103 135 1 0 1 -40 0 -90z m409 -37 c46 -172 53 -492 14 -635
-19 -71 -19 -78 -2 -78 29 0 177 72 221 107 41 33 42 34 42 11 0 -64 82 -174
149 -199 136 -53 258 -14 330 105 38 63 51 152 32 221 -15 55 -65 121 -114
149 -52 30 -144 48 -186 36 -28 -8 -31 -6 -31 14 0 12 6 30 13 39 16 21 92 38
106 24 7 -7 18 -7 32 -1 44 20 171 -37 227 -100 29 -33 29 -35 35 -192 5 -124
12 -182 33 -264 38 -152 34 -210 -24 -315 -31 -58 -98 -107 -174 -130 -128
-38 -314 -65 -444 -65 l-82 0 37 58 c49 74 83 156 79 190 -3 27 -5 27 -123 44
-66 9 -167 19 -225 23 -92 7 -107 5 -119 -9 -29 -34 -12 -164 33 -267 6 -14 0
-15 -56 -7 -86 11 -276 63 -343 93 -62 27 -78 53 -108 175 -53 211 -87 577
-54 564 10 -3 14 5 15 30 1 19 12 65 24 103 l23 68 60 24 c61 24 205 42 205
25 0 -5 9 -20 19 -33 l18 -23 42 21 c37 20 46 21 77 9 19 -7 58 -36 85 -66 48
-51 76 -61 64 -21 -4 11 -3 19 2 18 38 -7 44 23 11 58 -20 21 -20 24 -5 41 24
26 21 39 -3 17 -17 -15 -24 -16 -43 -6 -43 24 -62 42 -51 49 21 14 90 109 108
150 11 23 21 40 23 38 2 -2 15 -44 28 -93z m-962 67 c-3 -11 -10 -23 -16 -27
-5 -3 -8 -2 -5 3 3 5 8 17 11 27 9 24 16 22 10 -3z m1477 -77 c13 -46 22 -84
19 -87 -2 -2 -14 -7 -26 -10 -23 -7 -23 -6 -23 78 0 46 -3 93 -6 103 -5 12 -4
15 3 8 6 -5 21 -47 33 -92z m244 -75 l27 -47 -30 12 c-25 9 -29 15 -25 34 7
28 -12 31 -21 3 -3 -11 -13 -20 -20 -20 -11 0 -13 8 -8 33 4 17 7 42 8 54 l0
23 21 -23 c12 -12 34 -43 48 -69z m-1735 -357 c-3 -38 -3 -39 -36 -34 -41 7
-44 -10 -4 -27 27 -11 30 -18 35 -66 3 -30 9 -80 12 -111 3 -32 16 -93 29
-135 21 -73 21 -78 4 -78 -52 0 -131 66 -170 141 -19 38 -20 51 -14 133 5 56
14 105 26 127 22 44 73 89 100 89 17 0 19 -6 18 -39z m1416 -7 c-19 -28 -25
-50 -25 -90 0 -100 48 -155 138 -158 38 -1 54 5 84 27 46 36 62 82 55 159 -6
65 -6 65 56 9 38 -35 35 -87 -11 -179 -35 -68 -138 -118 -221 -106 -103 15
-168 64 -201 151 -26 71 -26 78 14 126 18 23 38 52 45 64 10 20 29 28 73 32
15 1 14 -4 -7 -35z m-337 -676 c56 -11 105 -25 108 -30 8 -12 -34 -76 -63 -95
-25 -17 -85 -19 -192 -7 -53 7 -54 7 -76 58 -36 80 -38 94 -18 99 29 8 130 -3
241 -25z m-385 -168 c7 0 21 -6 31 -13 17 -13 17 -16 -14 -50 -36 -41 -47 -45
-53 -19 -10 42 -59 -110 -144 -450 -17 -66 -32 -108 -40 -108 -27 0 -123 55
-123 70 0 29 161 503 191 562 l29 57 55 -25 c31 -13 61 -24 68 -24z m168 -47
c54 -13 69 -20 69 -35 0 -16 -10 -18 -105 -18 l-106 0 28 35 c15 19 32 35 37
35 4 0 39 -7 77 -17z m323 -152 c31 -94 68 -221 82 -283 13 -62 27 -120 30
-129 3 -11 -7 -21 -33 -32 -86 -36 -80 -42 -87 90 -7 130 -34 425 -43 460 -3
13 -10 20 -15 17 -5 -3 -7 -17 -4 -30 9 -36 -10 -29 -25 9 -7 17 -14 35 -16
39 -2 3 9 11 24 16 15 6 29 11 30 11 0 1 26 -75 57 -168z m-126 107 l10 -28
-51 6 c-49 7 -67 17 -67 39 0 6 22 10 48 11 45 1 50 -1 60 -28z m59 -110 c-3
-7 -5 -2 -5 12 0 14 2 19 5 13 2 -7 2 -19 0 -25z m-465 -99 c-3 -70 -7 -87
-23 -97 -18 -12 -19 -8 -19 59 0 87 18 156 35 137 8 -9 10 -42 7 -99z m257 85
l31 -6 0 -82 0 -81 -136 0 -136 0 6 44 c3 24 6 63 6 87 l0 44 99 0 c54 0 113
-3 130 -6z m165 -14 c23 -8 26 -15 25 -57 0 -27 -3 -64 -7 -83 l-7 -35 -62 8
-63 9 0 84 0 84 44 0 c25 0 56 -4 70 -10z m65 -137 c1 -24 -3 -43 -9 -43 -6 0
-9 35 -9 88 1 76 2 81 10 42 4 -25 8 -64 8 -87z m-569 -167 c-8 -112 -13 -137
-40 -195 -22 -45 -34 -61 -39 -52 -5 7 -7 21 -5 30 2 9 19 79 38 156 18 77 37
153 40 169 13 55 15 20 6 -108z m77 77 c-3 -10 -5 -4 -5 12 0 17 2 24 5 18 2
-7 2 -21 0 -30z m493 3 c0 -14 -4 -28 -10 -31 -6 -4 -10 7 -10 24 0 17 5 31
10 31 6 0 10 -11 10 -24z m-478 -46 c10 0 18 3 18 8 0 10 233 3 244 -8 4 -4 5
-32 1 -60 l-7 -52 -87 5 c-47 3 -119 11 -158 18 l-73 12 0 54 c0 54 0 54 22
39 12 -9 30 -16 40 -16z m454 -14 c22 -6 34 -32 34 -73 0 -35 -20 -37 -203
-24 -5 1 -3 110 2 117 2 2 150 -16 167 -20z m-688 -151 c4 -20 -1 -19 -48 5
-27 14 -40 27 -40 41 0 19 1 19 43 -5 23 -14 43 -32 45 -41z m544 14 c7 -4 8
-21 4 -44 l-7 -37 -71 6 c-39 3 -73 8 -76 11 -2 2 -1 20 2 40 l7 36 65 -3 c36
-1 70 -6 76 -9z m338 -18 c0 -12 -11 -23 -31 -30 -40 -14 -39 -14 -39 4 0 8
12 21 28 29 36 20 42 20 42 -3z m-909 -23 c33 -18 59 -36 59 -41 0 -13 -80 3
-110 21 -14 9 -26 17 -28 18 -4 2 10 34 15 34 3 0 32 -15 64 -32z m327 -44
c41 -8 89 -14 109 -14 31 0 34 -2 28 -22 -17 -53 -49 -98 -71 -98 -52 0 -266
57 -265 70 0 3 10 28 21 56 l21 51 42 -14 c23 -8 75 -21 115 -29z m592 21 c0
-31 -109 -62 -125 -35 -3 6 4 10 17 10 13 0 41 9 63 19 22 11 41 20 43 20 1 1
2 -6 2 -14z m-964 -30 c26 -14 59 -25 74 -25 18 0 29 -6 33 -17 2 -10 8 -25
11 -33 10 -24 -42 -80 -73 -80 -57 0 -101 58 -101 135 0 25 2 45 4 45 3 0 26
-11 52 -25z m823 -36 c7 -23 15 -47 17 -54 6 -14 -38 -23 -166 -32 l-86 -5
-21 56 -21 56 92 1 c50 1 102 5 116 9 48 15 56 12 69 -31z m175 15 c3 -9 6
-35 6 -58 0 -50 -19 -71 -68 -78 -37 -5 -45 2 -65 59 l-14 42 29 6 c18 4 35 2
46 -7 15 -12 16 -11 4 4 -12 14 -10 19 15 32 36 19 40 19 47 0z m-443 -314
c53 0 59 -2 63 -22 3 -13 23 -97 44 -187 l40 -164 -51 7 c-29 3 -127 9 -219
12 -93 4 -168 9 -168 11 0 4 107 277 131 332 9 21 14 23 56 17 25 -3 72 -6
104 -6z m-264 -184 c1 -1 -13 -45 -30 -98 -33 -100 -44 -111 -79 -84 -16 12
-17 25 -11 105 l6 91 56 -6 c31 -4 57 -7 58 -8z m503 -101 c0 -92 -1 -95 -22
-95 -35 0 -42 10 -62 90 -10 41 -21 81 -23 88 -4 9 10 12 51 12 l56 0 0 -95z"/>
<path d="M590 3180 c6 -11 13 -20 16 -20 2 0 0 9 -6 20 -6 11 -13 20 -16 20
-2 0 0 -9 6 -20z"/>
<path d="M1123 2543 c-89 -38 -141 -121 -150 -239 -5 -69 -4 -78 26 -139 47
-94 133 -145 246 -145 146 0 265 108 265 241 0 111 -45 204 -127 260 -43 30
-55 33 -133 36 -64 2 -95 -1 -127 -14z m43 -138 c-32 -30 -46 -64 -46 -117 0
-93 57 -145 150 -136 71 7 114 51 125 126 7 53 -11 107 -41 119 -7 3 -14 9
-14 14 0 14 93 -37 120 -66 19 -21 25 -37 25 -73 -1 -72 -12 -99 -61 -152 -37
-40 -56 -51 -110 -66 -55 -14 -72 -15 -118 -5 -120 27 -196 115 -196 226 0 50
2 53 45 84 43 30 121 70 139 71 5 0 -3 -11 -18 -25z"/>
<path d="M1900 2035 c0 -14 5 -25 10 -25 6 0 10 11 10 25 0 14 -4 25 -10 25
-5 0 -10 -11 -10 -25z"/>
<path d="M1881 2024 c0 -11 3 -14 6 -6 3 7 2 16 -1 19 -3 4 -6 -2 -5 -13z"/>
<path d="M610 2036 c0 -2 8 -10 18 -17 15 -13 16 -12 3 4 -13 16 -21 21 -21
13z"/>
</g>
</svg>
